# xmcd
#
# Track frame offsets: 
#        150
#        3415
#        27889
#        31811
#        60947
#        64863
#        93251
#        96697
#        119255
#        122475
#        150060
#        154221
#        180121
#        183322
#        207774
#        210765
#        237451
#        240926
#        269122
#        273739
#
# Disc length: 3983 seconds
#
# Revision: 0
# Processed by: cddbd v1.5.2PL0 Copyright (c) Steve Scherf et al.
# Submitted via: ExactAudioCopy v1.0b1
#
DISCID=fc0f8d14
DTITLE=Practice-Tracks - Blues for Drums and Percussion Vol. 1
DYEAR=2008
DGENRE=Blues
TTITLE0=01 West Side Shuffle In 4_4 - Example
TTITLE1=02 West Side Shuffle In 4_4 (Minus Drums)
TTITLE2=03 Hip Hop Blues In 4_4 - Example
TTITLE3=04 Hip Hop Blues In 4_4 (Minus Drums)
TTITLE4=05 Soul Swayin' Blues In 4_4 - Example
TTITLE5=06 Soul Swayin' Blues In 4_4 (Minus Drums)
TTITLE6=07 Rockin' Baby Blues In 4_4 - Example
TTITLE7=08 Rockin' Baby Blues In 4_4 (Minus Drums)
TTITLE8=09 The Funky Chicken Blues In 4_4 - Example
TTITLE9=10 The Funky Chicken Blues In 4_4 (Minus Drums)
TTITLE10=11 Sweet Home Shuffle In 4_4 - Example
TTITLE11=12 Sweet Home Shuffle In 4_4 (Minus Drums)
TTITLE12=13 Nighttime Groove In 4_4 - Example
TTITLE13=14 Nighttime Groove In 4_4 (Minus Drums)
TTITLE14=15 Preachin' the Blues In 3_4 - Example
TTITLE15=16 Preachin' the Blues In 3_4 (Minus Drums)
TTITLE16=17 Straight Up Blues In 4_4 - Example
TTITLE17=18 Straight Up Blues In 4_4 (Minus Drums)
TTITLE18=19 Doggone' Blues In 4_4 - Example
TTITLE19=20 Doggone' Blues In 4_4 (Minus Drums)
EXTD=
EXTT0=
EXTT1=
EXTT2=
EXTT3=
EXTT4=
EXTT5=
EXTT6=
EXTT7=
EXTT8=
EXTT9=
EXTT10=
EXTT11=
EXTT12=
EXTT13=
EXTT14=
EXTT15=
EXTT16=
EXTT17=
EXTT18=
EXTT19=
PLAYORDER=
